<svg width="53" height="39" viewBox="0 0 53 39" fill="none" xmlns="http://www.w3.org/2000/svg">
<path d="M38.75 2.0116C39.4387 3.61012 39.82 5.36908 39.82 7.21696C39.82 14.5253 33.8574 20.4497 26.5019 20.4497C19.1465 20.4497 13.1839 14.5253 13.1839 7.21696C13.1839 5.39035 13.5574 3.64878 14.2305 2.06572V2.00193C20.1542 3.34531 24.5721 8.61059 24.5721 14.9023C24.5721 22.2106 18.6096 28.135 11.2541 28.135C7.65908 28.135 4.3967 26.7201 2 24.418C4.46478 21.3544 8.27771 19.3886 12.5575 19.3886C21.2708 19.3886 26.4027 27.6344 26.4027 39C26.4027 27.6344 31.7272 19.3886 40.4425 19.3886C44.7223 19.3886 48.5352 21.3544 51 24.4161C48.6033 26.7182 45.3409 28.1331 41.7459 28.1331C34.3904 28.1331 28.4279 22.2087 28.4279 14.9003C28.4279 8.60866 32.8458 3.34338 38.7675 2" fill="black"/>
<path d="M38.75 2.0116C39.4387 3.61012 39.82 5.36908 39.82 7.21696C39.82 14.5253 33.8574 20.4497 26.5019 20.4497C19.1465 20.4497 13.1839 14.5253 13.1839 7.21696C13.1839 5.39035 13.5574 3.64878 14.2305 2.06572V2.00193C20.1542 3.34531 24.5721 8.61059 24.5721 14.9023C24.5721 22.2106 18.6096 28.135 11.2541 28.135C7.65908 28.135 4.3967 26.7201 2 24.418C4.46478 21.3544 8.27771 19.3886 12.5575 19.3886C21.2708 19.3886 26.4027 27.6344 26.4027 39C26.4027 27.6344 31.7272 19.3886 40.4425 19.3886C44.7223 19.3886 48.5352 21.3544 51 24.4161C48.6033 26.7182 45.3409 28.1331 41.7459 28.1331C34.3904 28.1331 28.4279 22.2087 28.4279 14.9003C28.4279 8.60866 32.8458 3.34338 38.7675 2" stroke="black" stroke-width="2" stroke-miterlimit="10"/>
</svg>
