<svg width="93" height="70" viewBox="0 0 93 70" fill="none" xmlns="http://www.w3.org/2000/svg">
<path d="M69.7433 0.0182498C71.0503 3.04265 71.774 6.37058 71.774 9.86674C71.774 23.6941 60.4577 34.9031 46.4979 34.9031C32.5382 34.9031 21.2219 23.6941 21.2219 9.86674C21.2219 6.41081 21.9308 3.11579 23.2083 0.120648V-3.5556e-05C34.4507 2.54163 42.8354 12.5035 42.8354 24.4073C42.8354 38.2346 31.5191 49.4436 17.5594 49.4436C10.7364 49.4436 4.54475 46.7666 -0.00390625 42.411H-0.000214162C4.67766 36.6146 11.9142 32.8953 20.0367 32.8953C36.5736 32.8953 46.3133 48.4964 46.3133 70C46.3133 48.4964 56.4186 32.8953 72.9591 32.8953C81.0817 32.8953 88.3182 36.6146 92.9961 42.4074C88.4474 46.7629 82.2558 49.4399 75.4328 49.4399C61.473 49.4399 50.1568 38.231 50.1568 24.4036C50.1568 12.4998 58.5415 2.53797 69.7802 -0.00369263" fill="white"/>
</svg>
